#!OML:ASF I:\Actors\actors\Patient Classification 2\Patient 1\Session 1\actor1.ASF
:FULLY-SPECIFIED
:DEGREES
853
root -0.741632 18.8347 5.10889 28.5362 2.80482 -0.647762
lowerback 28.0691 0.533964 2.04032
upperback 3.38232 1.38165 0.638824
thorax -11.7536 0.551211 -0.964658
lowerneck -11.1824 -1.84135 0.929643
upperneck 22.6741 -3.41995 3.00861
head 8.98213 -1.18974 0.493762
rclavicle 7.95139e-016 -8.74653e-015
rhumerus 4.20943 26.3489 -68.913
rradius 45.4704
rwrist 10.2162
rhand -24.3205 -36.2836
rfingers 7.12502
rthumb 2.16785 -66.2523
lclavicle 7.95139e-016 -8.74653e-015
lhumerus 11.2008 -25.8893 74.267
lradius 44.9414
lwrist -12.1959
lhand -21.8196 -43.5939
lfingers 7.12502
lthumb 4.58292 -13.6635
rfemur -32.0334 -0.93456 14.6745
rtibia 13.8901
rfoot -20.5957 -16.2347
rtoes -4.22792
lfemur -43.0042 -0.93167 -11.2496
ltibia 28.4105
lfoot -14.5804 8.79691
ltoes -55.7805
854
root -0.742373 18.8359 5.12382 28.5742 3.1752 -0.729593
lowerback 27.8076 0.425234 2.18624
upperback 3.37896 1.29406 0.744891
thorax -11.6232 0.510222 -0.892266
lowerneck -11.5698 -0.794957 1.56029
upperneck 22.434 -2.52552 4.74058
head 8.98637 -0.547403 1.07083
rclavicle -8.74653e-015 -1.35174e-014
rhumerus 4.11571 26.4081 -68.9961
rradius 45.4308
rwrist 10.2219
rhand -24.4356 -36.1769
rfingers 7.12502
rthumb 2.05662 -66.1467
lclavicle -8.74653e-015 -1.35174e-014
lhumerus 11.125 -25.6823 74.5441
lradius 44.9026
lwrist -12.2845
lhand -21.7322 -43.5186
lfingers 7.12502
lthumb 4.6674 -13.59
rfemur -32.064 -1.30557 14.9871
rtibia 14.0948
rfoot -20.6477 -16.0605
rtoes -4.4752
lfemur -43.0329 -0.883119 -11.1525
ltibia 28.3199
lfoot -14.4271 8.48045
ltoes -55.853
855
root -0.74294 18.8367 5.13291 28.5832 3.40064 -0.754028
lowerback 27.6647 0.364056 2.17973
upperback 3.35047 1.22374 0.84106
thorax -11.5862 0.482032 -0.751952
lowerneck -11.7839 0.225275 2.08506
upperneck 22.1033 -1.64059 6.51595
head 8.91939 0.0802153 1.68146
rclavicle 1.55052e-014 2.78299e-015
rhumerus 4.0604 26.6144 -68.9916
rradius 45.4264
rwrist 10.2138
rhand -24.3972 -36.2681
rfingers 7.12502
rthumb 2.09378 -66.2376
lclavicle 1.55052e-014 2.78299e-015
lhumerus 10.9616 -25.4863 74.8184
lradius 44.9466
lwrist -12.2808
lhand -21.6287 -43.4142
lfingers 7.12502
lthumb 4.7673 -13.4879
rfemur -32.023 -1.52602 15.146
rtibia 14.1347
rfoot -20.6675 -15.989
rtoes -4.47616
lfemur -43.0406 -0.871683 -11.1168
ltibia 28.2752
lfoot -14.324 8.29515
ltoes -55.9509
856
root -0.742991 18.8367 5.13522 28.5537 3.45255 -0.742478
lowerback 27.6458 0.407276 2.09953
upperback 3.30754 1.2556 0.837058
thorax -11.6268 0.499462 -0.721881
lowerneck -11.841 1.15273 2.76186
upperneck 21.6197 -0.864349 8.1988
head 8.76473 0.649469 2.21809
rclavicle -2.0276e-014 -1.35174e-014
rhumerus 3.87131 26.5739 -69.0563
rradius 45.4889
rwrist 10.2654
rhand -24.3353 -36.3041
rfingers 7.12502
rthumb 2.15354 -66.273
lclavicle -2.0276e-014 -1.35174e-014
lhumerus 10.8752 -25.5089 75.0321
lradius 44.9242
lwrist -12.3186
lhand -21.6908 -43.4069
lfingers 7.12502
lthumb 4.70733 -13.4792
rfemur -31.9612 -1.55355 15.1521
rtibia 14.1179
rfoot -20.6805 -15.9943
rtoes -4.21958
lfemur -43.0115 -0.897951 -11.1181
ltibia 28.277
lfoot -14.3226 8.27382
ltoes -55.9317
857
root -0.743167 18.8362 5.1361 28.5283 3.50014 -0.739367
lowerback 27.6737 0.478101 2.01921
upperback 3.23492 1.32137 0.807833
thorax -11.7249 0.530654 -0.733597
lowerneck -11.7589 1.95793 3.5001
upperneck 20.9906 -0.193746 9.72236
head 8.53318 1.14378 2.66895
rclavicle 1.55052e-014 -5.56597e-015
rhumerus 3.55992 26.4032 -69.2241
rradius 45.571
rwrist 10.2835
rhand -24.3342 -36.1627
rfingers 7.12502
rthumb 2.15457 -66.1315
lclavicle 1.55052e-014 -5.56597e-015
lhumerus 10.8147 -25.6527 75.1969
lradius 44.8464
lwrist -12.3083
lhand -21.7639 -43.5047
lfingers 7.12502
lthumb 4.63673 -13.5754
rfemur -31.9398 -1.56781 15.1617
rtibia 14.1564
rfoot -20.7181 -15.9956
rtoes -4.11594
lfemur -42.9911 -0.925084 -11.106
ltibia 28.278
lfoot -14.3252 8.24534
ltoes -55.8863
858
root -0.743344 18.8359 5.1352 28.514 3.5555 -0.714047
lowerback 27.7527 0.53822 1.88333
upperback 3.15271 1.36183 0.80482
thorax -11.8637 0.553237 -0.675129
lowerneck -11.6643 2.63441 4.26588
upperneck 20.3069 0.411977 10.8277
head 8.28032 1.55871 2.95892
rclavicle 5.56597e-015 0
rhumerus 3.33039 26.3266 -69.3461
rradius 45.6003
rwrist 10.2513
rhand -24.4056 -36.0722
rfingers 7.12502
rthumb 2.0856 -66.0417
lclavicle 5.56597e-015 0
lhumerus 10.7197 -25.6862 75.3754
lradius 44.7918
lwrist -12.345
lhand -21.7186 -43.5677
lfingers 7.12502
lthumb 4.68049 -13.6394
rfemur -31.9473 -1.60006 15.1522
rtibia 14.2254
rfoot -20.7821 -15.9977
rtoes -4.21251
lfemur -42.9895 -0.978304 -11.105
ltibia 28.2769
lfoot -14.3174 8.22239
ltoes -55.8726
859
root -0.741942 18.8359 5.13497 28.5078 3.58567 -0.673284
lowerback 27.7923 0.600637 1.73994
upperback 3.09782 1.403 0.816444
thorax -11.9511 0.577922 -0.595288
lowerneck -11.5959 3.1433 4.94521
upperneck 19.5831 0.90743 11.5345
head 8.02137 1.87032 3.11212
rclavicle 1.35174e-014 7.55382e-015
rhumerus 3.20406 26.2908 -69.3634
rradius 45.6197
rwrist 10.244
rhand -24.4195 -36.0648
rfingers 7.12502
rthumb 2.07222 -66.0345
lclavicle 1.35174e-014 7.55382e-015
lhumerus 10.6565 -25.6701 75.572
lradius 44.75
lwrist -12.4422
lhand -21.7223 -43.4761
lfingers 7.12502
lthumb 4.67689 -13.5477
rfemur -31.9637 -1.65863 15.1288
rtibia 14.2939
rfoot -20.7733 -15.9777
rtoes -4.37953
lfemur -42.9864 -1.02977 -11.1332
ltibia 28.2719
lfoot -14.3331 8.24306
ltoes -55.8488
860
root -0.739371 18.8366 5.13625 28.4936 3.60676 -0.647012
lowerback 27.791 0.656266 1.64738
upperback 3.06748 1.45033 0.838449
thorax -11.9877 0.604067 -0.534514
lowerneck -11.5673 3.41186 5.32176
upperneck 18.7414 1.19637 12.045
head 7.73309 2.03629 3.2225
rclavicle 4.37326e-015 3.18055e-015
rhumerus 3.16356 26.2679 -69.3217
rradius 45.6518
rwrist 10.2784
rhand -24.37 -36.0174
rfingers 7.12502
rthumb 2.12001 -65.9867
lclavicle 4.37326e-015 3.18055e-015
lhumerus 10.5948 -25.6983 75.7166
lradius 44.7904
lwrist -12.4553
lhand -21.7345 -43.3439
lfingers 7.12502
lthumb 4.66516 -13.4153
rfemur -31.9643 -1.71706 15.1193
rtibia 14.3487
rfoot -20.7321 -15.9489
rtoes -4.35402
lfemur -42.9689 -1.03481 -11.1788
ltibia 28.2639
lfoot -14.3202 8.24742
ltoes -55.8713
861
root -0.737106 18.8375 5.13702 28.4901 3.63612 -0.620702
lowerback 27.7744 0.695397 1.56945
upperback 3.0508 1.48256 0.87754
thorax -12.001 0.62356 -0.456837
lowerneck -11.5408 3.38817 5.30278
upperneck 17.6698 1.22228 12.448
head 7.37217 2.02706 3.32623
rclavicle 3.18055e-015 0
rhumerus 3.19402 26.2151 -69.2693
rradius 45.7054
rwrist 10.4319
rhand -24.3264 -35.9066
rfingers 7.12502
rthumb 2.16216 -65.8753
lclavicle 3.18055e-015 0
lhumerus 10.5099 -25.7792 75.766
lradius 44.9003
lwrist -12.4016
lhand -21.7259 -43.3115
lfingers 7.12502
lthumb 4.67344 -13.383
rfemur -31.9684 -1.73004 15.0858
rtibia 14.3871
rfoot -20.7731 -15.9613
rtoes -4.23072
lfemur -42.9697 -1.05662 -11.209
ltibia 28.2621
lfoot -14.2548 8.2135
ltoes -55.8889
862
root -0.73497 18.8377 5.13716 28.5077 3.64925 -0.596615
lowerback 27.7342 0.727551 1.51973
upperback 3.04301 1.51337 0.915448
thorax -11.991 0.641289 -0.395849
lowerneck -11.3999 3.02801 4.6614
upperneck 16.2539 0.924304 13.1269
head 6.88404 1.82392 3.57806
rclavicle 2.66371e-014 -9.14409e-015
rhumerus 3.23114 26.1741 -69.2132
rradius 45.7886
rwrist 10.4817
rhand -24.3064 -35.8685
rfingers 7.12502
rthumb 2.1814 -65.8371
lclavicle 2.66371e-014 -9.14409e-015
lhumerus 10.4689 -25.9313 75.7471
lradius 44.9546
lwrist -12.2939
lhand -21.7245 -43.345
lfingers 7.12502
lthumb 4.67479 -13.4166
rfemur -31.9896 -1.70247 15.0328
rtibia 14.4014
rfoot -20.8545 -15.994
rtoes -4.32928
lfemur -42.9939 -1.08578 -11.2254
ltibia 28.2688
lfoot -14.2227 8.18131
ltoes -55.8474
863
root -0.732672 18.8369 5.13701 28.5246 3.65436 -0.594762
lowerback 27.6937 0.748819 1.52423
upperback 3.02517 1.54507 0.942315
thorax -11.9907 0.656248 -0.379085
lowerneck -11.1749 2.32188 3.4594
upperneck 14.5584 0.258535 14.1493
head 6.31708 1.41935 3.99534
rclavicle 3.97569e-016 -1.59028e-015
rhumerus 3.25185 26.1925 -69.1979
rradius 45.8337
rwrist 10.3362
rhand -24.3934 -35.9026
rfingers 7.12502
rthumb 2.0974 -65.872
lclavicle 3.97569e-016 -1.59028e-015
lhumerus 10.4241 -26.0678 75.7212
lradius 44.9617
lwrist -12.2381
lhand -21.7363 -43.4233
lfingers 7.12502
lthumb 4.66338 -13.4946
rfemur -31.9915 -1.65014 14.9978
rtibia 14.3784
rfoot -20.9148 -16.0362
rtoes -4.35508
lfemur -43.02 -1.04936 -11.253
ltibia 28.2771
lfoot -14.2163 8.14546
ltoes -55.8587
864
root -0.729526 18.8365 5.13627 28.5641 3.67468 -0.603161
lowerback 27.6444 0.75608 1.56402
upperback 2.97494 1.57065 0.974894
thorax -12.0227 0.666435 -0.374003
lowerneck -10.7488 1.4529 2.34436
upperneck 12.6903 -0.527313 14.7104
head 5.69246 0.907743 4.2388
rclavicle -9.93923e-015 3.18055e-015
rhumerus 3.2479 26.1924 -69.2267
rradius 45.8176
rwrist 10.2718
rhand -24.5086 -35.805
rfingers 7.12502
rthumb 1.98617 -65.7755
lclavicle -9.93923e-015 3.18055e-015
lhumerus 10.2917 -26.1184 75.7385
lradius 44.9798
lwrist -12.2862
lhand -21.7048 -43.6408
lfingers 7.12502
lthumb 4.69378 -13.7128
rfemur -32.0037 -1.60573 14.9785
rtibia 14.3311
rfoot -20.9377 -16.1208
rtoes -4.36133
lfemur -43.0808 -1.01889 -11.2673
ltibia 28.2868
lfoot -14.1882 8.13576
ltoes -55.9736
865
root -0.725075 18.8378 5.13467 28.6368 3.70528 -0.614432
lowerback 27.5797 0.74602 1.65664
upperback 2.91007 1.58926 1.00407
thorax -12.0621 0.670592 -0.400535
lowerneck -9.95883 0.645184 1.58353
upperneck 10.5583 -1.13546 14.5062
head 4.92736 0.419871 4.19448
rclavicle -6.75868e-015 -1.27222e-014
rhumerus 3.25306 26.1626 -69.245
rradius 45.7897
rwrist 10.2944
rhand -24.5384 -35.5907
rfingers 7.12502
rthumb 1.95733 -65.5614
lclavicle -6.75868e-015 -1.27222e-014
lhumerus 10.1454 -26.1216 75.7704
lradius 44.973
lwrist -12.4022
lhand -21.6663 -43.8022
lfingers 7.12502
lthumb 4.73102 -13.875
rfemur -32.0607 -1.57552 14.9639
rtibia 14.2853
rfoot -20.94 -16.2186
rtoes -4.46514
lfemur -43.1828 -1.02957 -11.255
ltibia 28.2944
lfoot -14.1692 8.15127
ltoes -56.0378
866
root -0.720965 18.8387 5.13284 28.7029 3.73297 -0.630293
lowerback 27.5234 0.719933 1.77268
upperback 2.85977 1.59025 1.00487
thorax -12.0877 0.664837 -0.466391
lowerneck -9.14436 -0.202167 1.17799
upperneck 8.38 -1.81331 13.757
head 4.15731 -0.114654 3.93676
rclavicle 2.06736e-014 1.19271e-014
rhumerus 3.32803 26.1593 -69.2768
rradius 45.7572
rwrist 10.2363
rhand -24.4476 -35.6527
rfingers 7.12502
rthumb 2.04506 -65.6226
lclavicle 2.06736e-014 1.19271e-014
lhumerus 10.0557 -26.119 75.7297
lradius 44.9463
lwrist -12.4818
lhand -21.6491 -43.6972
lfingers 7.12502
lthumb 4.74758 -13.7704
rfemur -32.1144 -1.57348 14.9673
rtibia 14.2358
rfoot -20.8815 -16.2765
rtoes -4.58261
lfemur -43.2689 -1.06073 -11.2249
ltibia 28.2911
lfoot -14.1759 8.17502
ltoes -56.0391
